<?xml version="1.0" ?><svg id="Layer_1" style="enable-background:new 0 0 128 128;" version="1.1" viewBox="0 0 128 128" xml:space="preserve" xmlns="http://www.w3.org/2000/svg" xmlns:xlink="http://www.w3.org/1999/xlink"><style type="text/css">
	.st0{fill:#725948;}
	.st1{fill:#1C4FBE;}
	.st2{fill:#EE693F;}
	.st3{fill:#FFB8CB;}
	.st4{fill:#F94003;}
	.st5{fill:#DEA740;}
	.st6{fill:#1CB6BE;}
	.st7{fill:#BCCE3E;}
	.st8{fill:#EDEFF2;}
	.st9{fill:#684E3C;}
	.st10{fill:#100F0D;}
	.st11{fill:#5B4332;}
	.st12{fill:#5C7242;}
	.st13{fill:#E1B0AF;}
	.st14{fill:#EC5527;}
	.st15{fill:#057590;}
	.st16{fill:#771C39;}
	.st17{fill:#F8A70C;}
	.st18{fill:#F06522;}
	.st19{fill:#FFFFFF;}
	.st20{fill:#CC7C2C;}
	.st21{fill:#5D6124;}
	.st22{fill:#E6AA30;}
	.st23{fill:#2AB06A;}
	.st24{fill:#1A1613;}
	.st25{fill:none;}
	.st26{fill:#EE4D4C;}
	.st27{fill:#0000FF;}
	.st28{fill:#FC4310;}
	.st29{fill:#03A551;}
	.st30{fill:#E6222A;}
	.st31{fill:#FAFCFB;}
	.st32{fill:#070707;}
	.st33{fill:#BB8B90;}
	.st34{fill:#B298E5;}
	.st35{fill:#19191B;}
</style><g><polygon class="st7" points="89.3,62.6 82.6,63.4 75.9,64.5 71.7,64 72.6,59.9 76.1,55 82,53 89,51.8 95.9,50.1 95.4,46.4 95,42.8    90.9,43.2 88,43.7 84.9,44.3 81,45.2 85.7,36.4 90.1,28.1 87.4,26.6 84.8,25.1 82.5,26.1 80.1,27.2 77.1,32.8 73.6,39.1 69.7,30    66.1,21.5 62,23.6 57.9,25.6 60.9,36.3 64.8,46.7 66,54.2 62.8,61.7 56.9,51 50.8,40.9 46.9,43.5 43,46.1 47.9,56.1 53.3,65.8    55.7,76.3 51.7,86.8 46.2,77.2 37.2,64 30.5,69 36.9,82 42.8,90.7 45.6,97.7 44.1,105.2 42.4,109.4 41,113.9 41,117.3 43.6,119.7    47.2,119.7 49.8,117.2 57.8,105.2 66.5,101 75,99.3 82.5,97.7 81.7,93.8 81.7,89.9 73.3,91.3 64.9,92.8 61.6,92.6 61.7,89.3    67.3,78.5 79.1,74.3 84.1,73.6 89.1,72.3 89.2,67.5 89.3,62.6  "/><polygon class="st4" points="57.9,25.6 62.2,23.9 66.1,21.5 66.6,18.7 66.9,15.8 65.2,9.4 59.5,6 52.2,7.8 47.7,14.7 48.6,21.2    53.9,25.1 55.8,25.5 57.9,25.6  "/><polygon class="st4" points="80.1,27.2 85.1,27.7 90.1,28.1 95,25.7 98,21.4 98.8,16.4 96.4,11.9 90.5,9.7 84.4,11.4 80,14.5    78.9,19.6 79.5,23.4 80.1,27.2  "/><polygon class="st4" points="34.9,72.1 42.6,62.8 31.3,55.5 24.3,66 34.9,72.1  "/><polygon class="st4" points="43,46.1 47.3,44.1 50.8,40.9 49.4,30.1 41.5,27.1 36.1,29.2 32.8,33.7 33.3,39.7 37.5,44.2 40.1,45.3    43,46.1  "/><polygon class="st4" points="80.3,90.1 80.3,94.1 81.2,97.9 89.1,101.4 96.4,98.2 99.2,91.1 95.7,85.1 87.8,84.2 80.3,90.1  "/><polygon class="st4" points="93.6,43 94.1,46.7 94.5,50.3 97.9,52.2 101.6,53.3 107.9,52.5 111.8,47.8 111.5,41.5 106.9,37.1    99.7,37.4 93.6,43  "/><polygon class="st4" points="87.9,62.9 86.1,67.7 87.8,72.5 93,75.7 99.2,74.7 103,70.6 103.4,65.1 97.7,59.7 87.9,62.9  "/></g></svg>