<?xml version="1.0" ?><svg id="Layer_1" style="enable-background:new 0 0 128 128;" version="1.1" viewBox="0 0 128 128" xml:space="preserve" xmlns="http://www.w3.org/2000/svg" xmlns:xlink="http://www.w3.org/1999/xlink"><style type="text/css">
	.st0{fill:#725948;}
	.st1{fill:#1C4FBE;}
	.st2{fill:#EE693F;}
	.st3{fill:#FFB8CB;}
	.st4{fill:#F94003;}
	.st5{fill:#DEA740;}
	.st6{fill:#1CB6BE;}
	.st7{fill:#BCCE3E;}
	.st8{fill:#EDEFF2;}
	.st9{fill:#684E3C;}
	.st10{fill:#100F0D;}
	.st11{fill:#5B4332;}
	.st12{fill:#5C7242;}
	.st13{fill:#E1B0AF;}
	.st14{fill:#EC5527;}
	.st15{fill:#057590;}
	.st16{fill:#771C39;}
	.st17{fill:#F8A70C;}
	.st18{fill:#F06522;}
	.st19{fill:#FFFFFF;}
	.st20{fill:#CC7C2C;}
	.st21{fill:#5D6124;}
	.st22{fill:#E6AA30;}
	.st23{fill:#2AB06A;}
	.st24{fill:#1A1613;}
	.st25{fill:none;}
	.st26{fill:#EE4D4C;}
	.st27{fill:#0000FF;}
	.st28{fill:#FC4310;}
	.st29{fill:#03A551;}
	.st30{fill:#E6222A;}
	.st31{fill:#FAFCFB;}
	.st32{fill:#070707;}
	.st33{fill:#BB8B90;}
	.st34{fill:#B298E5;}
	.st35{fill:#19191B;}
</style><polygon class="st23" points="100.9,31.4 94.1,29.2 91.7,21.3 72.4,3.9 47,8.1 38.8,19 36.6,32.5 35.2,38.4 29.3,39.9 14.4,42.9   4.2,53.8 1.1,69.2 6.6,84.1 19.3,95.1 36,95.9 43.8,96 48.3,102.1 66,120.4 89.4,123.5 96.1,120.9 100.8,115.4 106.5,100.7   104,85.2 104.1,80.7 108.2,79.6 119.4,74 125.8,63.3 126.2,48.3 118.1,35.7 110.6,31.7 100.9,31.4 "/><polygon class="st3" points="62.2,80.3 74.2,84.1 85.7,77.5 86.8,65.8 78.1,57.6 61.2,64.3 62.2,80.3 "/></svg>