<?xml version="1.0" ?><svg id="Layer_1" style="enable-background:new 0 0 128 128;" version="1.1" viewBox="0 0 128 128" xml:space="preserve" xmlns="http://www.w3.org/2000/svg" xmlns:xlink="http://www.w3.org/1999/xlink"><style type="text/css">
	.st0{fill:#1C4FBE;}
	.st1{fill:#EE693F;}
	.st2{fill:#FFB8CB;}
	.st3{fill:#F94003;}
	.st4{fill:#DEA740;}
	.st5{fill:#1CB6BE;}
	.st6{fill:#BCCE3E;}
	.st7{fill:#EDEFF2;}
	.st8{fill:#684E3C;}
	.st9{fill:#100F0D;}
	.st10{fill:#5B4332;}
	.st11{fill:#5C7242;}
	.st12{fill:#E1B0AF;}
	.st13{fill:#EC5527;}
	.st14{fill:#057590;}
	.st15{fill:#771C39;}
	.st16{fill:#F8A70C;}
	.st17{fill:#F06522;}
	.st18{fill:#FFFFFF;}
	.st19{fill:#CC7C2C;}
	.st20{fill:#5D6124;}
	.st21{fill:#E6AA30;}
	.st22{fill:#2AB06A;}
	.st23{fill:#725948;}
	.st24{fill:#1A1613;}
	.st25{fill:none;}
	.st26{fill:#EE4D4C;}
</style><g/><g/><g/><path class="st16" d="M33.8,71.1c-1.8-5.3-23.9-1.8-27.3-5.8c-5.6-6.5,6.2-7.5,10.9-8.8c3.2-0.9,16.3-1.9,18.1-4.2  c2.6-3.3,1.1-2-0.3-7.8c-1.1-4.5-10.8-21.6-6.9-25.6c5.2-5.2,17.4,13.2,21.4,14.7c6.4,2.4,6.1-9.9,8.3-16C59.7,13,62.2,0.7,68.9,4.8  c4.2,2.6,1.5,29.1,2.1,33.3c4.2-3.2,16.5-21.3,22.7-16.4c6.7,5.3-11.4,21.6-8.5,26.6c2.7,4.6,22-8,27.1-4.3  c8,5.8-13.2,13.3-17.4,15.4c3.7,0.8,28.4,5.2,21.1,12.8c-2.1,2.2-13.9,1.7-17.1,2.2c-5.9,0.9-11.7,2-17.5,2.9  c3.5,4.2,27.4,29.2,18.8,32.7c-5.4,2.2-32.6-22.8-33.5-21.5C62.6,94,63,124.4,52.9,124c-4.8-0.2-2.4-30.1-4.2-31.7  c-2.9-2.7-33.2,17.5-36.1,7.9C10.9,94.6,34.3,72.7,33.8,71.1z"/><path class="st17" d="M51.4,64.6c-0.1-11.2,17-13.9,17.1-1.9C68.6,73.1,51.3,76,51.4,64.6z"/></svg>